Dinish-Bold.ufo
<glyph name="dollar" format="2">
  <advance width="514"/>
  <unicode hex="0024"/>
  <outline>
    <contour>
      <point x="199" y="-61" type="line"/>
      <point x="304" y="-61" type="line"/>
      <point x="304" y="35" type="line"/>
      <point x="408.33" y="55.8331"/>
      <point x="463" y="122.538"/>
      <point x="463" y="229" type="curve" smooth="yes"/>
      <point x="463" y="376.083"/>
      <point x="365.916" y="395.595"/>
      <point x="283.136" y="412.658" type="curve" smooth="yes"/>
      <point x="263.491" y="416.795" type="line" smooth="yes"/>
      <point x="194.15" y="431.395"/>
      <point x="168" y="453.633"/>
      <point x="168" y="498" type="curve" smooth="yes"/>
      <point x="168" y="547.079"/>
      <point x="195.983" y="574"/>
      <point x="247" y="574" type="curve" smooth="yes"/>
      <point x="300.774" y="574"/>
      <point x="327.036" y="548.348"/>
      <point x="333" y="490" type="curve"/>
      <point x="454" y="490" type="line"/>
      <point x="448.148" y="589.81"/>
      <point x="395.364" y="655.262"/>
      <point x="304" y="676" type="curve"/>
      <point x="304" y="758" type="line"/>
      <point x="199" y="758" type="line"/>
      <point x="199" y="677" type="line"/>
      <point x="101.15" y="656.639"/>
      <point x="45" y="587.728"/>
      <point x="45" y="488" type="curve" smooth="yes"/>
      <point x="45" y="386.788"/>
      <point x="90.0881" y="337.222"/>
      <point x="202.87" y="314.45" type="curve" smooth="yes"/>
      <point x="228.25" y="309.326" type="line" smooth="yes"/>
      <point x="309.917" y="292.836"/>
      <point x="338" y="269.724"/>
      <point x="338" y="219" type="curve" smooth="yes"/>
      <point x="338" y="165.907"/>
      <point x="308.402" y="139"/>
      <point x="250" y="139" type="curve" smooth="yes"/>
      <point x="185.33" y="139"/>
      <point x="154.639" y="166.711"/>
      <point x="147" y="232" type="curve"/>
      <point x="30" y="232" type="line"/>
      <point x="35.917" y="119.156"/>
      <point x="95.2865" y="49.2471"/>
      <point x="199" y="33" type="curve"/>
    </contour>
  </outline>
</glyph>
<glyph name="eight" format="2">
  <advance width="537"/>
  <unicode hex="0038"/>
  <outline>
    <contour>
      <point x="137" y="371" type="curve"/>
      <point x="84.1281" y="339.65"/>
      <point x="51.5922" y="281.365"/>
      <point x="51.5922" y="218" type="curve" smooth="yes"/>
      <point x="51.5922" y="188.039" type="line" smooth="yes"/>
      <point x="51.5922" y="65.3432"/>
      <point x="134.597" y="-11"/>
      <point x="268" y="-11" type="curve" smooth="yes"/>
      <point x="397.768" y="-11"/>
      <point x="485.692" y="72.6055"/>
      <point x="485.692" y="196" type="curve" smooth="yes"/>
      <point x="485.692" y="218.311" type="line" smooth="yes"/>
      <point x="485.692" y="286.547"/>
      <point x="457.156" y="337.993"/>
      <point x="401" y="371" type="curve"/>
      <point x="446.915" y="399.359"/>
      <point x="473.711" y="449.478"/>
      <point x="473.711" y="507" type="curve" smooth="yes"/>
      <point x="473.711" y="526.221" type="line" smooth="yes"/>
      <point x="473.711" y="642.845"/>
      <point x="393.487" y="718"/>
      <point x="269" y="718" type="curve" smooth="yes"/>
      <point x="150.629" y="718"/>
      <point x="65.2032" y="637.1"/>
      <point x="65.2032" y="525" type="curve" smooth="yes"/>
      <point x="65.2032" y="506.018" type="line" smooth="yes"/>
      <point x="65.2032" y="443.106"/>
      <point x="88.5365" y="399.226"/>
    </contour>
    <contour>
      <point x="269" y="424" type="curve" smooth="yes"/>
      <point x="223.062" y="424"/>
      <point x="194" y="455.774"/>
      <point x="194" y="506" type="curve" smooth="yes"/>
      <point x="194" y="525" type="line" smooth="yes"/>
      <point x="194" y="571.296"/>
      <point x="225.049" y="604"/>
      <point x="269" y="604" type="curve" smooth="yes"/>
      <point x="313.805" y="604"/>
      <point x="345" y="571.574"/>
      <point x="345" y="525" type="curve" smooth="yes"/>
      <point x="345" y="506" type="line" smooth="yes"/>
      <point x="345" y="456.704"/>
      <point x="314.689" y="424"/>
    </contour>
    <contour>
      <point x="269" y="102" type="curve" smooth="yes"/>
      <point x="217.427" y="102"/>
      <point x="181" y="141.325"/>
      <point x="181" y="197" type="curve" smooth="yes"/>
      <point x="181" y="221" type="line" smooth="yes"/>
      <point x="181" y="275"/>
      <point x="217.348" y="313"/>
      <point x="269" y="313" type="curve" smooth="yes"/>
      <point x="321.877" y="313"/>
      <point x="357" y="276.28"/>
      <point x="357" y="221" type="curve" smooth="yes"/>
      <point x="357" y="197" type="line" smooth="yes"/>
      <point x="357" y="140.132"/>
      <point x="321.677" y="102"/>
    </contour>
  </outline>
</glyph>
<glyph name="B" format="2">
  <advance width="612"/>
  <unicode hex="0042"/>
  <anchor x="275" y="776" name="top"/>
  <anchor x="275" y="-86" name="bottom"/>
  <outline>
    <contour>
      <point x="159.73" y="0" type="line"/>
      <point x="344" y="0" type="line" smooth="yes"/>
      <point x="474.605" y="0"/>
      <point x="561" y="67.5731"/>
      <point x="561" y="203" type="curve" smooth="yes"/>
      <point x="561" y="273.899"/>
      <point x="529.988" y="334.697"/>
      <point x="463" y="364" type="curve"/>
      <point x="519.409" y="392.15"/>
      <point x="552" y="447.284"/>
      <point x="552" y="510" type="curve" smooth="yes"/>
      <point x="552" y="644.111"/>
      <point x="459.352" y="707"/>
      <point x="333" y="707" type="curve" smooth="yes"/>
      <point x="159.73" y="707" type="line"/>
      <point x="159.73" y="590" type="line"/>
      <point x="323" y="590" type="line" smooth="yes"/>
      <point x="380.374" y="590"/>
      <point x="417" y="561.622"/>
      <point x="417" y="502" type="curve" smooth="yes"/>
      <point x="417" y="443"/>
      <point x="378.147" y="418"/>
      <point x="323" y="418" type="curve" smooth="yes"/>
      <point x="159.73" y="418" type="line"/>
      <point x="159.73" y="301" type="line"/>
      <point x="331" y="301" type="line" smooth="yes"/>
      <point x="390.005" y="301"/>
      <point x="427" y="274.045"/>
      <point x="427" y="212" type="curve" smooth="yes"/>
      <point x="427" y="149.518"/>
      <point x="392.75" y="117"/>
      <point x="331" y="117" type="curve" smooth="yes"/>
      <point x="159.73" y="117" type="line"/>
    </contour>
    <contour>
      <point x="60" y="0" type="line"/>
      <point x="195" y="0" type="line"/>
      <point x="195" y="707.297" type="line"/>
      <point x="60" y="707" type="line"/>
    </contour>
  </outline>
  <guideline angle="0" name="horizontal" x="0" y="707"/>
  <guideline angle="90" name="h1" x="275" y="0"/>
</glyph>
<glyph name="H" format="2">
  <advance width="623"/>
  <unicode hex="0048"/>
  <anchor x="312" y="776" name="top"/>
  <anchor x="313" y="-86" name="bottom"/>
  <outline>
    <contour>
      <point x="174.64" y="299" type="line"/>
      <point x="449.36" y="299" type="line"/>
      <point x="449.36" y="416" type="line"/>
      <point x="174.64" y="416" type="line"/>
    </contour>
    <contour>
      <point x="429" y="0" type="line"/>
      <point x="563" y="0" type="line"/>
      <point x="563" y="707" type="line"/>
      <point x="429" y="707" type="line"/>
    </contour>
    <contour>
      <point x="60" y="0" type="line"/>
      <point x="195" y="0" type="line"/>
      <point x="195" y="707" type="line"/>
      <point x="60" y="707" type="line"/>
    </contour>
  </outline>
  <guideline angle="0" name="horizontal" x="0" y="707"/>
  <guideline angle="90" name="h1" x="312" y="0"/>
</glyph>
<glyph name="J" format="2">
  <advance width="338"/>
  <unicode hex="004A"/>
  <anchor x="204" y="776" name="top"/>
  <anchor x="236" y="-86" name="bottom"/>
  <outline>
    <contour>
      <point x="25" y="0" type="line"/>
      <point x="111" y="0" type="line" smooth="yes"/>
      <point x="214.732" y="0"/>
      <point x="272" y="58.9759"/>
      <point x="272" y="162" type="curve" smooth="yes"/>
      <point x="272" y="707" type="line"/>
      <point x="137" y="707" type="line"/>
      <point x="137" y="184" type="line" smooth="yes"/>
      <point x="137" y="124.298"/>
      <point x="109.823" y="118.077"/>
      <point x="69.1098" y="118.077" type="curve" smooth="yes"/>
      <point x="25" y="118.077" type="line"/>
    </contour>
  </outline>
  <guideline angle="90" name="h1" x="204" y="0"/>
</glyph>
<glyph name="M" format="2">
  <advance width="771"/>
  <unicode hex="004D"/>
  <anchor x="387" y="776" name="top"/>
  <anchor x="236" y="-86" name="bottom"/>
  <outline>
    <contour>
      <point x="71" y="0" type="line"/>
      <point x="206" y="0" type="line"/>
      <point x="206" y="422" type="line"/>
      <point x="342" y="136" type="line"/>
      <point x="432" y="136" type="line"/>
      <point x="566" y="419" type="line"/>
      <point x="566" y="0" type="line"/>
      <point x="700" y="0" type="line"/>
      <point x="700" y="707" type="line"/>
      <point x="566" y="707" type="line"/>
      <point x="387" y="316" type="line"/>
      <point x="206" y="707" type="line"/>
      <point x="71" y="707" type="line"/>
    </contour>
  </outline>
  <guideline angle="90" name="h1" x="387" y="0"/>
</glyph>
<glyph name="P" format="2">
  <advance width="580"/>
  <unicode hex="0050"/>
  <anchor x="284" y="776" name="top"/>
  <anchor x="236" y="-86" name="bottom"/>
  <outline>
    <contour>
      <point x="60" y="0" type="line"/>
      <point x="195" y="0" type="line"/>
      <point x="195" y="268" type="line"/>
      <point x="325" y="268" type="line" smooth="yes"/>
      <point x="466.344" y="268"/>
      <point x="556" y="351.834"/>
      <point x="556" y="484" type="curve" smooth="yes"/>
      <point x="556" y="621.674"/>
      <point x="467.613" y="707"/>
      <point x="325" y="707" type="curve" smooth="yes"/>
      <point x="60" y="707" type="line"/>
    </contour>
    <contour>
      <point x="195" y="386" type="line"/>
      <point x="195" y="590" type="line"/>
      <point x="318" y="590" type="line" smooth="yes"/>
      <point x="384.991" y="590"/>
      <point x="422" y="552.279"/>
      <point x="422" y="484" type="curve" smooth="yes"/>
      <point x="422" y="423.391"/>
      <point x="382.319" y="386"/>
      <point x="318" y="386" type="curve" smooth="yes"/>
    </contour>
  </outline>
  <guideline angle="90" name="h1" x="284" y="0"/>
</glyph>
<glyph name="U" format="2">
  <advance width="628"/>
  <unicode hex="0055"/>
  <anchor x="313" y="776" name="top"/>
  <anchor x="313" y="-86" name="bottom"/>
  <anchor x="368" y="0" name="b.cedilla"/>
  <outline>
    <contour>
      <point x="60" y="707" type="line"/>
      <point x="60" y="233" type="line" smooth="yes"/>
      <point x="60" y="89.2301"/>
      <point x="173.733" y="-6"/>
      <point x="313" y="-6" type="curve" smooth="yes"/>
      <point x="453.104" y="-6"/>
      <point x="568" y="87.7161"/>
      <point x="568" y="233" type="curve" smooth="yes"/>
      <point x="568" y="707" type="line"/>
      <point x="434" y="707" type="line"/>
      <point x="434" y="238" type="line" smooth="yes"/>
      <point x="434" y="163.018"/>
      <point x="390.538" y="111"/>
      <point x="313" y="111" type="curve" smooth="yes"/>
      <point x="235.298" y="111"/>
      <point x="194" y="163.609"/>
      <point x="194" y="238" type="curve" smooth="yes"/>
      <point x="194" y="707" type="line"/>
    </contour>
  </outline>
  <guideline angle="90" name="h1" x="313" y="0"/>
</glyph>
<glyph name="l" format="2">
  <advance width="299"/>
  <unicode hex="006C"/>
  <anchor x="119" y="776" name="top"/>
  <anchor x="165" y="-86" name="bottom"/>
  <anchor x="300" y="397" name="dot"/>
  <outline>
    <contour>
      <point x="275" y="0" type="line"/>
      <point x="275" y="110.147" type="line"/>
      <point x="256.836" y="110.147" type="line" smooth="yes"/>
      <point x="213.39" y="110.147"/>
      <point x="182" y="121.703"/>
      <point x="182" y="170" type="curve" smooth="yes"/>
      <point x="182" y="707" type="line"/>
      <point x="55" y="707" type="line"/>
      <point x="55" y="162" type="line" smooth="yes"/>
      <point x="55" y="60.6358"/>
      <point x="115.636" y="0"/>
      <point x="217" y="0" type="curve" smooth="yes"/>
    </contour>
  </outline>
  <guideline angle="0" name="horizontal" x="0" y="707"/>
  <guideline angle="90" name="h1" x="119" y="0"/>
</glyph>
<glyph name="r" format="2">
  <advance width="366"/>
  <unicode hex="0072"/>
  <anchor x="204" y="602" name="top"/>
  <anchor x="204" y="-86" name="bottom"/>
  <outline>
    <contour>
      <point x="55" y="0" type="line"/>
      <point x="182" y="0" type="line"/>
      <point x="182" y="319" type="line" smooth="yes"/>
      <point x="182" y="384.84"/>
      <point x="215.585" y="432"/>
      <point x="285" y="432" type="curve" smooth="yes"/>
      <point x="303" y="432"/>
      <point x="324" y="429"/>
      <point x="348" y="421" type="curve"/>
      <point x="348" y="540" type="line"/>
      <point x="335" y="543"/>
      <point x="321" y="544"/>
      <point x="305" y="544" type="curve" smooth="yes"/>
      <point x="253.435" y="544"/>
      <point x="205.046" y="523.081"/>
      <point x="179" y="477" type="curve"/>
      <point x="179" y="532" type="line"/>
      <point x="55" y="532" type="line"/>
    </contour>
  </outline>
  <guideline angle="90" name="h1" x="204" y="0"/>
</glyph>
<glyph name="section" format="2">
  <advance width="523"/>
  <unicode hex="00A7"/>
  <outline>
    <contour>
      <point x="75" y="4" type="line"/>
      <point x="74.9715" y="-109.122"/>
      <point x="140.35" y="-172"/>
      <point x="258" y="-172" type="curve" smooth="yes"/>
      <point x="367.114" y="-172"/>
      <point x="442" y="-106.067"/>
      <point x="442" y="-10" type="curve" smooth="yes"/>
      <point x="442" y="59.1426"/>
      <point x="422.054" y="98.7452"/>
      <point x="373" y="127" type="curve"/>
      <point x="428.186" y="153.552"/>
      <point x="463" y="214.283"/>
      <point x="463" y="284" type="curve" smooth="yes"/>
      <point x="463" y="386.962"/>
      <point x="419.891" y="447.944"/>
      <point x="304.036" y="479.371" type="curve" smooth="yes"/>
      <point x="249.898" y="494.056"/>
      <point x="205" y="513.071"/>
      <point x="205" y="568" type="curve" smooth="yes"/>
      <point x="205" y="605.363"/>
      <point x="228.637" y="629"/>
      <point x="266" y="629" type="curve" smooth="yes"/>
      <point x="307.998" y="629"/>
      <point x="330.083" y="604.5"/>
      <point x="330" y="558" type="curve"/>
      <point x="444" y="558" type="line"/>
      <point x="444.027" y="670.364"/>
      <point x="379.601" y="733"/>
      <point x="264" y="733" type="curve" smooth="yes"/>
      <point x="156.817" y="733"/>
      <point x="83" y="666.116"/>
      <point x="83" y="569" type="curve" smooth="yes"/>
      <point x="83" y="506.669"/>
      <point x="104.091" y="465.746"/>
      <point x="150" y="439" type="curve"/>
      <point x="92.5947" y="408.261"/>
      <point x="60" y="351.402"/>
      <point x="60" y="282" type="curve" smooth="yes"/>
      <point x="60" y="170.506"/>
      <point x="105.267" y="115.511"/>
      <point x="219.122" y="85.6984" type="curve" smooth="yes"/>
      <point x="290.494" y="67.0097"/>
      <point x="321" y="39.2524"/>
      <point x="321" y="-7" type="curve" smooth="yes"/>
      <point x="321" y="-44.4345"/>
      <point x="295.889" y="-68"/>
      <point x="256" y="-68" type="curve" smooth="yes"/>
      <point x="212.183" y="-68"/>
      <point x="189.919" y="-43.7129"/>
      <point x="190" y="4" type="curve"/>
    </contour>
    <contour>
      <point x="262" y="193" type="curve" smooth="yes"/>
      <point x="210.704" y="193"/>
      <point x="182" y="225.292"/>
      <point x="182" y="283" type="curve" smooth="yes"/>
      <point x="182" y="339.533"/>
      <point x="211.748" y="373"/>
      <point x="262" y="373" type="curve" smooth="yes"/>
      <point x="310.272" y="373"/>
      <point x="340" y="338.699"/>
      <point x="340" y="283" type="curve" smooth="yes"/>
      <point x="340" y="227.301"/>
      <point x="310.272" y="193"/>
    </contour>
  </outline>
</glyph>
<glyph name="uni00AD" format="2">
  <advance width="402"/>
  <unicode hex="00AD"/>
  <outline>
    <contour>
      <point x="60" y="295" type="line"/>
      <point x="342" y="295" type="line"/>
      <point x="342" y="413" type="line"/>
      <point x="60" y="413" type="line"/>
    </contour>
  </outline>
</glyph>
<glyph name="oslash" format="2">
  <advance width="522"/>
  <unicode hex="00F8"/>
  <anchor x="262" y="602" name="top"/>
  <outline>
    <component base="o"/>
    <contour>
      <point x="46" y="-30" type="line"/>
      <point x="110" y="-30" type="line"/>
      <point x="476" y="559" type="line"/>
      <point x="413" y="559" type="line"/>
    </contour>
  </outline>
  <guideline angle="90" name="h1" x="262" y="0"/>
</glyph>
<glyph name="dcaron" format="2">
  <advance width="639"/>
  <unicode hex="010F"/>
  <outline>
    <component base="d"/>
    <contour>
      <point x="539" y="481" type="line"/>
      <point x="639" y="562" type="line"/>
      <point x="639" y="707" type="line"/>
      <point x="539" y="707" type="line"/>
    </contour>
  </outline>
</glyph>
<glyph name="dcroat" format="2">
  <advance width="526"/>
  <unicode hex="0111"/>
  <outline>
    <component base="d"/>
    <contour>
      <point x="238" y="581" type="line"/>
      <point x="526" y="581" type="line"/>
      <point x="526" y="654" type="line"/>
      <point x="238" y="654" type="line"/>
    </contour>
  </outline>
</glyph>
<glyph name="gcommaaccent" format="2">
  <advance width="526"/>
  <unicode hex="0123"/>
  <outline>
    <component base="g"/>
    <contour>
      <point x="203" y="564" type="line"/>
      <point x="303" y="564" type="line"/>
      <point x="303" y="707" type="line"/>
      <point x="203" y="626" type="line"/>
    </contour>
  </outline>
</glyph>
<glyph name="IJ" format="2">
  <advance width="628"/>
  <unicode hex="0132"/>
  <outline>
    <contour>
      <point x="61" y="216" type="line"/>
      <point x="68.0507" y="78.3502"/>
      <point x="180.911" y="-6"/>
      <point x="313" y="-6" type="curve" smooth="yes"/>
      <point x="454.815" y="-6"/>
      <point x="568" y="85.9781"/>
      <point x="568" y="233" type="curve" smooth="yes"/>
      <point x="568" y="707" type="line"/>
      <point x="433" y="707" type="line"/>
      <point x="433" y="238" type="line" smooth="yes"/>
      <point x="433" y="161.453"/>
      <point x="392.482" y="111"/>
      <point x="313" y="111" type="curve" smooth="yes"/>
      <point x="245.93" y="111"/>
      <point x="202.649" y="149.013"/>
      <point x="196" y="216" type="curve"/>
    </contour>
    <contour>
      <point x="60" y="352" type="line"/>
      <point x="195" y="352" type="line"/>
      <point x="195" y="707" type="line"/>
      <point x="60" y="707" type="line"/>
    </contour>
  </outline>
</glyph>
<glyph name="Lslash" format="2">
  <advance width="528"/>
  <unicode hex="0141"/>
  <outline>
    <component base="L"/>
    <contour>
      <point x="20" y="279" type="line"/>
      <point x="311" y="416" type="line"/>
      <point x="311" y="529" type="line"/>
      <point x="21" y="392" type="line"/>
    </contour>
  </outline>
</glyph>
<glyph name="lslash" format="2">
  <advance width="293"/>
  <unicode hex="0142"/>
  <outline>
    <component base="l"/>
    <contour>
      <point x="-10" y="280" type="line"/>
      <point x="282" y="416" type="line"/>
      <point x="282" y="530" type="line"/>
      <point x="-10" y="393" type="line"/>
    </contour>
  </outline>
</glyph>
<glyph name="tcaron" format="2">
  <advance width="360"/>
  <unicode hex="0165"/>
  <outline>
    <component base="t"/>
    <contour>
      <point x="257" y="575" type="line"/>
      <point x="357" y="656" type="line"/>
      <point x="357" y="801" type="line"/>
      <point x="257" y="801" type="line"/>
    </contour>
  </outline>
</glyph>
<glyph name="uni0300" format="2">
  <unicode hex="0300"/>
  <anchor x="0" y="602" name="_top"/>
  <outline>
    <contour>
      <point x="-32" y="602" type="line"/>
      <point x="78" y="602" type="line"/>
      <point x="-33" y="738" type="line"/>
      <point x="-173" y="738" type="line"/>
    </contour>
  </outline>
  <guideline angle="90" name="h1" x="0" y="0"/>
</glyph>
<glyph name="uni030B" format="2">
  <unicode hex="030B"/>
  <anchor x="0" y="602" name="_top"/>
  <outline>
    <contour>
      <point x="-159" y="602" type="line"/>
      <point x="-49" y="602" type="line"/>
      <point x="92" y="738" type="line"/>
      <point x="-48" y="738" type="line"/>
    </contour>
    <contour>
      <point x="41" y="602" type="line"/>
      <point x="151" y="602" type="line"/>
      <point x="292" y="738" type="line"/>
      <point x="152" y="738" type="line"/>
    </contour>
  </outline>
</glyph>
<glyph name="Ljecyr" format="2">
  <advance width="957"/>
  <unicode hex="0409"/>
  <outline>
    <component base="Elcyr"/>
    <contour>
      <point x="524.82" y="0" type="line"/>
      <point x="675" y="0" type="line" smooth="yes"/>
      <point x="817.613" y="0"/>
      <point x="906" y="85.3257"/>
      <point x="906" y="223" type="curve" smooth="yes"/>
      <point x="906" y="355.166"/>
      <point x="816.344" y="439"/>
      <point x="675" y="439" type="curve" smooth="yes"/>
      <point x="524.82" y="439" type="line"/>
      <point x="524.82" y="321" type="line"/>
      <point x="668" y="321" type="line" smooth="yes"/>
      <point x="732.319" y="321"/>
      <point x="772" y="283.609"/>
      <point x="772" y="223" type="curve" smooth="yes"/>
      <point x="772" y="154.721"/>
      <point x="734.991" y="117"/>
      <point x="668" y="117" type="curve" smooth="yes"/>
      <point x="524.82" y="117" type="line"/>
    </contour>
  </outline>
</glyph>
<glyph name="Gecyr" format="2">
  <advance width="539"/>
  <unicode hex="0413"/>
  <anchor x="304" y="776" name="top"/>
  <outline>
    <contour>
      <point x="174.82" y="590" type="line"/>
      <point x="509" y="590" type="line"/>
      <point x="509" y="707" type="line"/>
      <point x="174.82" y="707" type="line"/>
    </contour>
    <contour>
      <point x="60" y="0" type="line"/>
      <point x="195" y="0" type="line"/>
      <point x="195" y="707.002" type="line"/>
      <point x="60" y="707" type="line"/>
    </contour>
  </outline>
  <guideline angle="90" name="h1" x="304" y="0"/>
</glyph>
<glyph name="Elcyr" format="2">
  <advance width="618"/>
  <unicode hex="041B"/>
  <outline>
    <contour>
      <point x="424" y="0" type="line"/>
      <point x="558" y="0" type="line"/>
      <point x="558" y="707" type="line"/>
      <point x="424" y="707" type="line"/>
    </contour>
    <contour>
      <point x="20.79" y="-8" type="line"/>
      <point x="140.69" y="-8"/>
      <point x="201.763" y="67.0331"/>
      <point x="212.853" y="227.468" type="curve" smooth="yes"/>
      <point x="246" y="707" type="line"/>
      <point x="112" y="707" type="line"/>
      <point x="80.8467" y="261.953" type="line" smooth="yes"/>
      <point x="73.0503" y="150.576"/>
      <point x="58.9787" y="116.92"/>
      <point x="20.79" y="116.808" type="curve"/>
    </contour>
    <contour>
      <point x="175" y="590" type="line"/>
      <point x="439" y="590" type="line"/>
      <point x="439" y="707" type="line"/>
      <point x="175" y="707" type="line"/>
    </contour>
  </outline>
</glyph>
<glyph name="Shchacyr" format="2">
  <advance width="892"/>
  <unicode hex="0429"/>
  <outline>
    <contour>
      <point x="60" y="0" type="line"/>
      <point x="194" y="0" type="line"/>
      <point x="194" y="707" type="line"/>
      <point x="60" y="707" type="line"/>
    </contour>
    <contour>
      <point x="348.418" y="0" type="line"/>
      <point x="482.418" y="0" type="line"/>
      <point x="482.418" y="707" type="line"/>
      <point x="348.418" y="707" type="line"/>
    </contour>
    <contour>
      <point x="636" y="0" type="line"/>
      <point x="770" y="0" type="line"/>
      <point x="770" y="707" type="line"/>
      <point x="636" y="707" type="line"/>
    </contour>
    <contour>
      <point x="61.412" y="-0.3753" type="line"/>
      <point x="769.631" y="-0.3753" type="line"/>
      <point x="769.631" y="116.621" type="line"/>
      <point x="61.412" y="116.621" type="line"/>
    </contour>
    <contour>
      <point x="524.095" y="-1.00929" type="line"/>
      <point x="747.905" y="-1.00929" type="line"/>
      <point x="747.905" y="-170.459" type="line"/>
      <point x="881.905" y="-170.459" type="line"/>
      <point x="881.905" y="116.621" type="line"/>
      <point x="524.095" y="115.981" type="line"/>
    </contour>
  </outline>
</glyph>
<glyph name="vecyr" format="2">
  <advance width="530"/>
  <unicode hex="0432"/>
  <outline>
    <contour>
      <point x="161" y="0" type="line"/>
      <point x="310" y="0" type="line" smooth="yes"/>
      <point x="413" y="0"/>
      <point x="475" y="59"/>
      <point x="475" y="156" type="curve" smooth="yes"/>
      <point x="475" y="212"/>
      <point x="453" y="264"/>
      <point x="393" y="288" type="curve"/>
      <point x="393" y="291" type="line"/>
      <point x="430.257" y="313.79"/>
      <point x="455" y="357"/>
      <point x="455" y="407" type="curve" smooth="yes"/>
      <point x="455" y="479"/>
      <point x="400" y="532"/>
      <point x="320" y="532" type="curve" smooth="yes"/>
      <point x="161" y="532" type="line"/>
      <point x="161" y="421" type="line"/>
      <point x="285" y="421" type="line" smooth="yes"/>
      <point x="309" y="421"/>
      <point x="329" y="395"/>
      <point x="329" y="371" type="curve" smooth="yes"/>
      <point x="329" y="349"/>
      <point x="309" y="320"/>
      <point x="285" y="320" type="curve" smooth="yes"/>
      <point x="161" y="320" type="line"/>
      <point x="161" y="209" type="line"/>
      <point x="305" y="209" type="line" smooth="yes"/>
      <point x="328" y="209"/>
      <point x="349" y="185"/>
      <point x="349" y="162" type="curve" smooth="yes"/>
      <point x="349" y="139"/>
      <point x="329" y="111"/>
      <point x="305" y="111" type="curve" smooth="yes"/>
      <point x="161" y="111" type="line"/>
    </contour>
    <contour>
      <point x="55" y="0" type="line"/>
      <point x="181" y="0" type="line"/>
      <point x="181" y="532" type="line"/>
      <point x="55" y="532" type="line"/>
    </contour>
  </outline>
</glyph>
<glyph name="encyr" format="2">
  <advance width="530"/>
  <unicode hex="043D"/>
  <outline>
    <contour>
      <point x="349" y="0" type="line"/>
      <point x="475" y="0" type="line"/>
      <point x="475" y="532" type="line"/>
      <point x="349" y="532" type="line"/>
    </contour>
    <contour>
      <point x="55" y="0" type="line"/>
      <point x="181" y="0" type="line"/>
      <point x="181" y="532" type="line"/>
      <point x="55" y="532" type="line"/>
    </contour>
    <contour>
      <point x="161" y="229" type="line"/>
      <point x="369" y="229" type="line"/>
      <point x="369" y="340" type="line"/>
      <point x="161" y="340" type="line"/>
    </contour>
  </outline>
</glyph>
<glyph name="eukrcyr" format="2">
  <advance width="517"/>
  <unicode hex="0454"/>
  <outline>
    <contour>
      <point x="350" y="190" type="line"/>
      <point x="350" y="184" type="line" smooth="yes"/>
      <point x="350" y="133.128"/>
      <point x="314.864" y="106"/>
      <point x="264" y="106" type="curve" smooth="yes"/>
      <point x="193.277" y="106"/>
      <point x="172" y="155.198"/>
      <point x="172" y="218" type="curve" smooth="yes"/>
      <point x="172" y="314" type="line" smooth="yes"/>
      <point x="172" y="375.517"/>
      <point x="194.823" y="426"/>
      <point x="264" y="426" type="curve" smooth="yes"/>
      <point x="317.181" y="426"/>
      <point x="350" y="394.861"/>
      <point x="350" y="342" type="curve" smooth="yes"/>
      <point x="350" y="339" type="line"/>
      <point x="471" y="339" type="line"/>
      <point x="471" y="344" type="line" smooth="yes"/>
      <point x="471" y="473.865"/>
      <point x="389.602" y="539"/>
      <point x="262" y="539" type="curve" smooth="yes"/>
      <point x="119.061" y="539"/>
      <point x="46" y="456.227"/>
      <point x="46" y="316" type="curve" smooth="yes"/>
      <point x="46" y="217" type="line" smooth="yes"/>
      <point x="46" y="75.5634"/>
      <point x="117.813" y="-6"/>
      <point x="262" y="-6" type="curve" smooth="yes"/>
      <point x="381.157" y="-6"/>
      <point x="471" y="56.6576"/>
      <point x="471" y="183" type="curve" smooth="yes"/>
      <point x="471" y="190" type="line"/>
    </contour>
    <contour>
      <point x="285.481" y="229" type="line"/>
      <point x="148" y="229" type="line"/>
      <point x="148" y="340" type="line"/>
      <point x="285.481" y="340" type="line"/>
    </contour>
  </outline>
</glyph>
<glyph name="Germandbls" format="2">
  <advance width="788"/>
  <unicode hex="1E9E"/>
  <outline>
    <contour>
      <point x="77" y="1" type="line"/>
      <point x="209" y="1" type="line"/>
      <point x="209" y="477" type="line" smooth="yes"/>
      <point x="209" y="578.671"/>
      <point x="261.185" y="590"/>
      <point x="349" y="590" type="curve" smooth="yes"/>
      <point x="404.196" y="590"/>
      <point x="433.616" y="588.194"/>
      <point x="486" y="568" type="curve"/>
      <point x="322" y="402" type="line"/>
      <point x="322" y="299" type="line"/>
      <point x="451" y="299" type="line" smooth="yes"/>
      <point x="517.787" y="299"/>
      <point x="596" y="297.219"/>
      <point x="596" y="212" type="curve" smooth="yes"/>
      <point x="596" y="131.315"/>
      <point x="526.01" y="126"/>
      <point x="455" y="126" type="curve" smooth="yes"/>
      <point x="313" y="126" type="line"/>
      <point x="313" y="-3" type="line"/>
      <point x="431" y="-3" type="line" smooth="yes"/>
      <point x="589.054" y="-3"/>
      <point x="728" y="16.6642"/>
      <point x="728" y="211" type="curve" smooth="yes"/>
      <point x="728" y="346.353"/>
      <point x="642.32" y="408.71"/>
      <point x="517" y="423" type="curve"/>
      <point x="671" y="588" type="line"/>
      <point x="578.093" y="686.714"/>
      <point x="475.816" y="714.021"/>
      <point x="343.34" y="714.021" type="curve" smooth="yes"/>
      <point x="169.675" y="714.021"/>
      <point x="77" y="659.835"/>
      <point x="77" y="477" type="curve" smooth="yes"/>
    </contour>
  </outline>
</glyph>
<glyph name="doubleobliquehyphen" format="2">
  <advance width="541"/>
  <unicode hex="2E17"/>
  <outline>
    <contour>
      <point x="82" y="260" type="line"/>
      <point x="498" y="411" type="line"/>
      <point x="459" y="519" type="line"/>
      <point x="43" y="368" type="line"/>
    </contour>
    <contour>
      <point x="82" y="46" type="line"/>
      <point x="498" y="197" type="line"/>
      <point x="459" y="305" type="line"/>
      <point x="43" y="154" type="line"/>
    </contour>
  </outline>
</glyph>
<glyph name="fl" format="2">
  <advance width="635"/>
  <unicode hex="FB02"/>
  <outline>
    <component base="f"/>
    <contour>
      <point x="617" y="0" type="line"/>
      <point x="617" y="110" type="line"/>
      <point x="585" y="110" type="line" smooth="yes"/>
      <point x="547.356" y="110"/>
      <point x="524" y="114.934"/>
      <point x="524" y="170" type="curve" smooth="yes"/>
      <point x="524" y="707" type="line"/>
      <point x="397" y="707" type="line"/>
      <point x="397" y="162" type="line" smooth="yes"/>
      <point x="397" y="59.2068"/>
      <point x="456.367" y="0"/>
      <point x="559" y="0" type="curve" smooth="yes"/>
    </contour>
  </outline>
</glyph>
<glyph name="Zacute.loclPLK" format="2">
  <advance width="517"/>
  <outline>
    <component base="Z"/>
    <contour>
      <point x="202" y="789" type="line"/>
      <point x="311" y="789" type="line"/>
      <point x="375" y="925" type="line"/>
      <point x="234" y="925" type="line"/>
    </contour>
  </outline>
</glyph>
<glyph name="cacute.loclPLK" format="2">
  <advance width="517"/>
  <outline>
    <component base="c"/>
    <contour>
      <point x="202" y="602" type="line"/>
      <point x="311" y="602" type="line"/>
      <point x="375" y="738" type="line"/>
      <point x="234" y="738" type="line"/>
    </contour>
  </outline>
</glyph>
<glyph name="tsecyr.loclBGR" format="2">
  <advance width="546"/>
  <outline>
    <component base="icyr.loclBGR"/>
    <contour>
      <point x="419.86" y="-170" type="line"/>
      <point x="545.86" y="-170" type="line"/>
      <point x="545.86" y="111" type="line"/>
      <point x="399.86" y="111" type="line"/>
      <point x="399.86" y="0.418083" type="line"/>
      <point x="419.86" y="0.418083" type="line"/>
    </contour>
  </outline>
</glyph>
<glyph name="two.osf" format="2">
  <advance width="504"/>
  <outline>
    <contour>
      <point x="48" y="0" type="line"/>
      <point x="458" y="0" type="line"/>
      <point x="458" y="118" type="line"/>
      <point x="237" y="118" type="line"/>
      <point x="362" y="209" type="line" smooth="yes"/>
      <point x="424.527" y="254.52"/>
      <point x="458.013" y="302.634"/>
      <point x="458.013" y="357.074" type="curve" smooth="yes"/>
      <point x="458.013" y="363.254" type="line" smooth="yes"/>
      <point x="458.013" y="468.009"/>
      <point x="369.282" y="548"/>
      <point x="253" y="548" type="curve" smooth="yes"/>
      <point x="126.281" y="548"/>
      <point x="45" y="475.707"/>
      <point x="45" y="363" type="curve" smooth="yes"/>
      <point x="45" y="354" type="line"/>
      <point x="175.187" y="354" type="line"/>
      <point x="175.187" y="360.375" type="line" smooth="yes"/>
      <point x="175.187" y="404.441"/>
      <point x="204.42" y="434"/>
      <point x="248" y="434" type="curve" smooth="yes"/>
      <point x="293.796" y="434"/>
      <point x="321.955" y="403.509"/>
      <point x="321.955" y="354" type="curve" smooth="yes"/>
      <point x="321.955" y="350.955" type="line" smooth="yes"/>
      <point x="321.955" y="322.959"/>
      <point x="295.02" y="295.676"/>
      <point x="216" y="235" type="curve" smooth="yes"/>
      <point x="48" y="106" type="line"/>
    </contour>
  </outline>
</glyph>
<glyph name="yucyr.loclBGR" format="2">
  <advance width="732"/>
  <anchor x="452" y="602" name="top"/>
  <outline>
    <component base="o" xOffset="210"/>
    <contour>
      <point x="55" y="0" type="line"/>
      <point x="181" y="0" type="line"/>
      <point x="181" y="707" type="line"/>
      <point x="55" y="707" type="line"/>
    </contour>
    <contour>
      <point x="131" y="229" type="line"/>
      <point x="339" y="229" type="line"/>
      <point x="339" y="340" type="line"/>
      <point x="131" y="340" type="line"/>
    </contour>
  </outline>
  <guideline angle="0" name="horizontal" x="0" y="532"/>
  <guideline angle="90" name="h1" x="123" y="0"/>
  <guideline angle="0" name="horizontal" x="0" y="532"/>
  <guideline angle="90" name="h1" x="454" y="0"/>
</glyph>
<glyph name="zero.sups" format="2">
  <advance width="359"/>
  <outline>
    <contour>
      <point x="180" y="426" type="curve" smooth="yes"/>
      <point x="272.832" y="426"/>
      <point x="317" y="475.004"/>
      <point x="317" y="578" type="curve" smooth="yes"/>
      <point x="317" y="724" type="line" smooth="yes"/>
      <point x="317" y="821.503"/>
      <point x="272.764" y="868"/>
      <point x="180" y="868" type="curve" smooth="yes"/>
      <point x="88.6097" y="868"/>
      <point x="42" y="819.364"/>
      <point x="42" y="724" type="curve" smooth="yes"/>
      <point x="42" y="578" type="line" smooth="yes"/>
      <point x="42" y="474.609"/>
      <point x="86.1316" y="426"/>
    </contour>
    <contour>
      <point x="180" y="517" type="curve" smooth="yes"/>
      <point x="156.3" y="517"/>
      <point x="147" y="533.064"/>
      <point x="147" y="574" type="curve" smooth="yes"/>
      <point x="147" y="721" type="line" smooth="yes"/>
      <point x="147" y="761.406"/>
      <point x="156.607" y="778"/>
      <point x="180" y="778" type="curve" smooth="yes"/>
      <point x="203.186" y="778"/>
      <point x="212" y="762.3"/>
      <point x="212" y="721" type="curve" smooth="yes"/>
      <point x="212" y="574" type="line" smooth="yes"/>
      <point x="212" y="531.779"/>
      <point x="203.703" y="517"/>
    </contour>
  </outline>
</glyph>
